<svg width="0" height="0" class="hidden">
    <symbol fill="currentColor" xmlns="http://www.w3.org/2000/svg" viewBox="0 0 30 30" id="icons-behance">
        <path d="M 6 4 C 4.895 4 4 4.895 4 6 L 4 24 C 4 25.105 4.895 26 6 26 L 24 26 C 25.105 26 26 25.105 26 24 L 26 6 C 26 4.895 25.105 4 24 4 L 6 4 z M 17.5 11 L 20.056641 11 C 20.332641 11 20.556641 11.224 20.556641 11.5 C 20.556641 11.776 20.332641 12 20.056641 12 L 17.5 12 C 17.224 12 17 11.776 17 11.5 C 17 11.224 17.224 11 17.5 11 z M 8.9199219 11.384766 L 11.705078 11.384766 C 13.349078 11.384766 14.330078 12.189047 14.330078 13.498047 C 14.330078 14.396047 13.665875 15.179594 12.796875 15.308594 L 12.796875 15.414062 C 13.918875 15.496063 14.734375 16.341594 14.734375 17.433594 C 14.735375 18.918594 13.613688 19.859375 11.804688 19.859375 L 8.9199219 19.859375 C 8.4119219 19.859375 8 19.447453 8 18.939453 L 8 12.304688 C 8 11.796688 8.4119219 11.384766 8.9199219 11.384766 z M 9.7734375 12.740234 L 9.7734375 14.896484 L 11.105469 14.896484 C 12.063469 14.897484 12.585937 14.503266 12.585938 13.822266 C 12.585938 13.147266 12.099906 12.740234 11.253906 12.740234 L 9.7734375 12.740234 z M 18.962891 13.240234 C 20.871891 13.240234 21.998047 14.456719 21.998047 16.511719 L 21.998047 17.033203 L 17.554688 17.033203 L 17.554688 17.121094 C 17.577687 18.084094 18.142156 18.683594 19.035156 18.683594 C 19.710156 18.683594 20.173469 18.443625 20.355469 18.015625 L 21.947266 18.015625 C 21.689266 19.237625 20.572328 20 18.986328 20 C 17.013328 20 15.851563 18.754344 15.851562 16.652344 C 15.851562 14.544344 17.036891 13.240234 18.962891 13.240234 z M 18.970703 14.550781 C 18.177703 14.550781 17.618547 15.101406 17.560547 15.941406 L 20.320312 15.941406 C 20.284313 15.084406 19.768703 14.550781 18.970703 14.550781 z M 9.7734375 16.095703 L 9.7734375 18.503906 L 11.353516 18.503906 C 12.375516 18.503906 12.927734 18.07325 12.927734 17.28125 C 12.927734 16.50525 12.3575 16.095703 11.3125 16.095703 L 9.7734375 16.095703 z"></path>
    </symbol>
    <symbol fill="currentColor" xmlns="http://www.w3.org/2000/svg" viewBox="0 0 48 48" id="icons-dribble">
        <path d="M 24 4 C 12.972066 4 4 12.972074 4 24 C 4 35.027926 12.972066 44 24 44 C 35.027934 44 44 35.027926 44 24 C 44 12.972074 35.027934 4 24 4 z M 24 7 C 28.142307 7 31.929518 8.4763377 34.875 10.927734 C 32.122374 13.351092 28.974768 15.323142 25.580078 16.835938 C 23.811529 13.61959 21.891654 10.500767 19.736328 7.5585938 C 21.100562 7.2070927 22.524179 7 24 7 z M 16.785156 8.6171875 C 18.997535 11.542724 20.949628 14.664262 22.746094 17.886719 C 19.050465 19.170625 15.137713 20 11 20 C 9.8323552 20 8.6813446 19.922155 7.5390625 19.810547 C 8.7969115 14.835264 12.230939 10.75149 16.785156 8.6171875 z M 37.001953 13.046875 C 39.461176 15.964926 40.9535 19.721786 40.992188 23.837891 C 38.832662 23.296195 36.575941 23 34.25 23 C 32.4219 23 30.655764 23.235969 28.925781 23.574219 C 28.323231 22.178362 27.663283 20.821807 26.984375 19.46875 C 30.643681 17.813906 34.040456 15.676234 37.001953 13.046875 z M 24.177734 20.570312 C 24.811258 21.821635 25.45011 23.063845 26.015625 24.353516 C 19.953229 26.24965 14.749259 30.09875 11.257812 35.238281 C 8.6153572 32.243192 7 28.319322 7 24 C 7 23.585614 7.0335222 23.180292 7.0625 22.773438 C 8.3577913 22.906235 9.665848 23 11 23 C 15.643379 23 20.045102 22.063249 24.177734 20.570312 z M 34.25 26 C 36.498791 26 38.668342 26.319367 40.738281 26.882812 C 39.953494 31.489342 37.336086 35.457573 33.644531 38.001953 C 32.755328 34.064901 31.510607 30.269114 30.085938 26.5625 C 31.460152 26.325929 32.807024 26 34.25 26 z M 27.091797 27.125 C 28.662683 31.125628 30.006215 35.241408 30.90625 39.53125 C 28.795754 40.468547 26.462824 41 24 41 C 20.010678 41 16.357113 39.622608 13.460938 37.332031 C 16.608874 32.477365 21.430763 28.841138 27.091797 27.125 z"></path>
    </symbol>
    <symbol fill="currentColor" xmlns="http://www.w3.org/2000/svg" viewBox="0 0 32 32" id="icons-facebook">
        <path d="M 7 5 C 5.90625 5 5 5.90625 5 7 L 5 25 C 5 26.09375 5.90625 27 7 27 L 25 27 C 26.09375 27 27 26.09375 27 25 L 27 7 C 27 5.90625 26.09375 5 25 5 Z M 7 7 L 25 7 L 25 25 L 19.8125 25 L 19.8125 18.25 L 22.40625 18.25 L 22.78125 15.25 L 19.8125 15.25 L 19.8125 13.3125 C 19.8125 12.4375 20.027344 11.84375 21.28125 11.84375 L 22.90625 11.84375 L 22.90625 9.125 C 22.628906 9.089844 21.667969 9.03125 20.5625 9.03125 C 18.257813 9.03125 16.6875 10.417969 16.6875 13 L 16.6875 15.25 L 14.0625 15.25 L 14.0625 18.25 L 16.6875 18.25 L 16.6875 25 L 7 25 Z"></path>
    </symbol>
    <symbol fill="currentColor" xmlns="http://www.w3.org/2000/svg" viewBox="0 0 24 24" id="icons-instagram">
        <path d="M 8 3 C 5.243 3 3 5.243 3 8 L 3 16 C 3 18.757 5.243 21 8 21 L 16 21 C 18.757 21 21 18.757 21 16 L 21 8 C 21 5.243 18.757 3 16 3 L 8 3 z M 8 5 L 16 5 C 17.654 5 19 6.346 19 8 L 19 16 C 19 17.654 17.654 19 16 19 L 8 19 C 6.346 19 5 17.654 5 16 L 5 8 C 5 6.346 6.346 5 8 5 z M 17 6 A 1 1 0 0 0 16 7 A 1 1 0 0 0 17 8 A 1 1 0 0 0 18 7 A 1 1 0 0 0 17 6 z M 12 7 C 9.243 7 7 9.243 7 12 C 7 14.757 9.243 17 12 17 C 14.757 17 17 14.757 17 12 C 17 9.243 14.757 7 12 7 z M 12 9 C 13.654 9 15 10.346 15 12 C 15 13.654 13.654 15 12 15 C 10.346 15 9 13.654 9 12 C 9 10.346 10.346 9 12 9 z"></path>
    </symbol>
    <symbol fill="currentColor" xmlns="http://www.w3.org/2000/svg" viewBox="0 0 24 24" id="icons-twitter">
        <path d="M22,3.999c-0.78,0.463-2.345,1.094-3.265,1.276c-0.027,0.007-0.049,0.016-0.075,0.023c-0.813-0.802-1.927-1.299-3.16-1.299 c-2.485,0-4.5,2.015-4.5,4.5c0,0.131-0.011,0.372,0,0.5c-3.353,0-5.905-1.756-7.735-4c-0.199,0.5-0.286,1.29-0.286,2.032 c0,1.401,1.095,2.777,2.8,3.63c-0.314,0.081-0.66,0.139-1.02,0.139c-0.581,0-1.196-0.153-1.759-0.617c0,0.017,0,0.033,0,0.051 c0,1.958,2.078,3.291,3.926,3.662c-0.375,0.221-1.131,0.243-1.5,0.243c-0.26,0-1.18-0.119-1.426-0.165 c0.514,1.605,2.368,2.507,4.135,2.539c-1.382,1.084-2.341,1.486-5.171,1.486H2C3.788,19.145,6.065,20,8.347,20 C15.777,20,20,14.337,20,8.999c0-0.086-0.002-0.266-0.005-0.447C19.995,8.534,20,8.517,20,8.499c0-0.027-0.008-0.053-0.008-0.08 c-0.003-0.136-0.006-0.263-0.009-0.329c0.79-0.57,1.475-1.281,2.017-2.091c-0.725,0.322-1.503,0.538-2.32,0.636 C20.514,6.135,21.699,4.943,22,3.999z M18,8.999c0,4.08-2.957,8.399-8.466,8.943C10.28,17.413,11,16.662,11,16.662 S8,14,7.775,10.522C8.81,10.838,9.888,10.999,11,10.999h2v-2.5c0-0.001,0-0.001,0-0.001C13.002,7.118,14.12,6,15.5,6 C16.881,6,18,7.119,18,8.5C18,8.5,18,8.92,18,8.999z"></path>
    </symbol>
</svg>
