<svg width="143" height="291" viewBox="0 0 143 291" fill="none" xmlns="http://www.w3.org/2000/svg">
<path d="M0 256.28V-1L14.126 17.4671C21.3313 26.8866 25.2353 38.4161 25.2353 50.2754V207.471L31.5441 201.833V137.191C31.5441 134.943 32.0854 132.728 33.1223 130.733L58.1814 82.5288V178.028L75.9104 162.184C85.2588 153.83 97.357 149.212 109.894 149.212H133.887L58.1814 214.7V217.298L143 291H102.343L58.1814 253.096V291H31.5441V237.742L6.6169 259.305C4.02587 261.546 0 259.706 0 256.28Z" fill="black"/>
<path d="M0 256.28V-1L14.126 17.4671C21.3313 26.8866 25.2353 38.4161 25.2353 50.2754V207.471L31.5441 201.833V137.191C31.5441 134.943 32.0854 132.728 33.1223 130.733L58.1814 82.5288V178.028L75.9104 162.184C85.2588 153.83 97.357 149.212 109.894 149.212H133.887L58.1814 214.7V217.298L143 291H102.343L58.1814 253.096V291H31.5441V237.742L6.6169 259.305C4.02587 261.546 0 259.706 0 256.28Z" fill="url(#paint0_linear_238_2494)"/>
<defs>
<linearGradient id="paint0_linear_238_2494" x1="-18.8586" y1="6.06452" x2="152.952" y2="307.64" gradientUnits="userSpaceOnUse">
<stop stop-color="#9CD9BC"/>
<stop offset="0.338542" stop-color="#107D7D"/>
<stop offset="0.723958" stop-color="#5B3D78"/>
<stop offset="1" stop-color="#0B0C39"/>
</linearGradient>
</defs>
</svg>
